<?xml version="1.0" standalone="no"?>
<!DOCTYPE svg PUBLIC "-//W3C//DTD SVG 20010904//EN"
 "http://www.w3.org/TR/2001/REC-SVG-20010904/DTD/svg10.dtd">
<svg version="1.0" xmlns="http://www.w3.org/2000/svg"
 width="241.000000pt" height="300.000000pt" viewBox="0 0 241.000000 300.000000"
 preserveAspectRatio="xMidYMid meet">
<metadata>
Created by potrace 1.10, written by Peter Selinger 2001-2011
</metadata>
<g transform="translate(0.000000,300.000000) scale(0.100000,-0.100000)"
fill="#000000" stroke="none">
<path d="M1130 2879 c-14 -4 -44 -7 -67 -8 -54 -1 -93 -16 -93 -36 0 -8 -4
-15 -9 -15 -14 0 -37 -42 -45 -82 -5 -29 -3 -41 11 -55 15 -15 17 -27 11 -62
-4 -24 -12 -49 -18 -56 -8 -10 -8 -21 3 -40 l14 -27 18 28 c14 22 15 31 6 46
-14 22 -14 55 -1 63 6 3 10 17 10 30 0 53 28 77 108 90 23 4 42 10 42 14 0 8
-63 7 -112 -4 -26 -5 -38 -4 -38 4 0 6 7 14 15 17 8 4 13 10 10 15 -11 18 45
39 118 45 71 6 77 5 78 -12 0 -11 3 -13 6 -6 6 14 33 16 33 2 0 -5 10 -10 23
-9 12 0 16 3 10 6 -7 2 -13 9 -13 14 0 5 18 0 40 -11 22 -11 40 -25 40 -31 0
-6 9 -8 20 -4 13 4 20 2 20 -7 0 -10 3 -9 10 2 8 12 10 11 10 -7 0 -13 6 -23
13 -23 25 0 56 -63 54 -108 -2 -23 1 -42 5 -42 4 0 8 -4 8 -9 0 -5 -11 -8 -25
-6 -24 2 -24 1 -10 -15 8 -9 15 -22 15 -28 0 -7 6 -12 13 -12 8 0 9 -3 1 -8
-6 -4 -14 -23 -18 -43 -12 -67 -68 -119 -107 -99 -25 14 -30 11 -23 -17 5 -18
10 -20 34 -13 22 6 30 5 34 -7 9 -22 7 -25 -11 -19 -15 5 -18 -2 -21 -40 -2
-25 -7 -56 -12 -70 -6 -14 -10 -38 -10 -53 0 -15 -7 -52 -15 -84 -22 -83 -32
-190 -22 -220 8 -26 27 -37 27 -17 0 6 -4 10 -8 10 -17 0 -11 66 13 165 14 56
25 112 25 123 0 11 3 28 6 37 5 13 9 11 21 -11 7 -15 11 -35 8 -43 -3 -8 -3
-12 1 -8 4 4 13 -6 20 -23 10 -23 11 -43 2 -84 -7 -39 -7 -59 1 -72 9 -17 10
-17 9 6 0 14 4 38 11 53 13 34 15 84 2 91 -5 3 -11 16 -14 28 l-6 23 19 -22
c24 -30 32 -29 18 2 -6 13 -19 27 -28 30 -21 7 -30 34 -30 90 0 37 16 75 93
220 24 46 29 114 16 203 -8 55 -15 69 -56 112 -49 52 -96 73 -193 86 -30 4
-64 10 -75 14 -11 4 -31 3 -45 -1z"/>
<path d="M1155 2710 c-7 -11 12 -40 25 -40 15 0 21 33 8 42 -17 11 -26 10 -33
-2z"/>
<path d="M970 2607 c0 -22 30 -57 49 -57 10 0 21 -9 24 -20 3 -11 13 -20 22
-20 9 0 28 9 42 20 14 11 32 20 39 20 19 0 18 25 -2 44 -29 29 -126 16 -109
-15 3 -8 -5 -2 -19 14 -27 29 -46 35 -46 14z m163 -23 c12 -13 -22 -34 -55
-34 l-33 1 24 19 c23 20 52 26 64 14z"/>
<path d="M1370 2550 c-13 -24 -10 -24 24 -7 14 8 23 17 19 20 -12 13 -32 7
-43 -13z"/>
<path d="M1287 2553 c-14 -3 -15 -8 -7 -18 6 -8 7 -22 2 -36 -10 -28 -4 -62 9
-54 5 4 9 24 9 45 0 21 5 42 10 45 12 7 14 26 3 24 -5 -1 -16 -3 -26 -6z"/>
<path d="M1345 2480 c-1 -32 2 -37 13 -28 7 6 11 20 9 30 -6 21 -3 22 24 8 15
-8 19 -7 19 4 0 15 -21 26 -48 26 -13 0 -17 -10 -17 -40z"/>
<path d="M906 2461 c-7 -20 -4 -29 14 -43 17 -13 20 -24 16 -46 -4 -15 0 -47
9 -71 8 -24 15 -53 15 -65 0 -39 15 -48 76 -50 43 -2 62 2 71 13 18 24 6 31
-51 31 -40 0 -57 5 -70 19 -20 22 -14 41 14 41 10 0 21 4 25 9 7 13 -24 29
-47 26 -10 -2 -21 1 -24 7 -11 17 19 29 57 22 21 -3 40 -1 43 5 4 6 -13 13
-44 17 -27 4 -50 10 -50 15 0 5 6 9 13 9 8 0 7 4 -3 10 -11 7 -8 10 16 10 20
0 34 6 38 16 3 9 2 12 -5 8 -20 -12 -98 6 -101 24 -3 13 -6 11 -12 -7z"/>
<path d="M1290 2300 c-14 -22 -33 -43 -42 -46 -21 -6 -24 -20 -6 -26 7 -3 2
-7 -11 -11 -18 -4 -22 -2 -19 11 4 13 -1 17 -19 16 -28 -1 -67 -34 -43 -35 9
0 7 -3 -5 -9 -21 -8 87 -4 115 5 15 5 75 135 62 135 -4 0 -18 -18 -32 -40z"/>
<path d="M1070 2150 c-22 -22 -25 -36 -10 -45 14 -9 83 -114 98 -150 12 -28
69 -75 92 -75 16 0 23 50 14 99 -7 36 -13 46 -28 46 -11 0 -21 -6 -24 -13 -2
-7 2 -10 10 -7 8 3 15 0 16 -7 1 -7 4 -34 8 -60 4 -27 3 -48 -2 -48 -18 0 -64
51 -70 78 -4 15 -18 42 -31 60 -14 18 -26 39 -27 45 -2 7 -8 25 -15 42 -10 25
-10 31 5 42 16 12 16 13 1 13 -9 0 -26 -9 -37 -20z"/>
<path d="M1017 2079 c-9 -17 -26 -33 -37 -36 -22 -6 -26 -18 -10 -28 6 -3 17
1 26 9 8 9 21 16 29 16 7 0 15 10 19 23 14 54 0 63 -27 16z"/>
<path d="M1020 1967 c-45 -13 -45 -14 -30 -32 8 -10 30 -15 61 -15 41 0 50 -4
68 -29 11 -15 33 -31 48 -34 16 -3 45 -17 66 -31 42 -29 53 -31 63 -14 4 7 3
8 -5 4 -7 -4 -26 5 -45 21 -57 49 -74 61 -96 73 -12 6 -26 25 -32 41 -11 32
-34 36 -98 16z"/>
<path d="M1480 1947 c0 -23 -33 -47 -64 -47 -8 0 -21 -12 -31 -26 -9 -14 -39
-47 -66 -72 -49 -46 -62 -72 -34 -72 8 0 15 9 15 20 0 11 6 20 13 20 17 1 52
31 66 59 10 17 20 22 44 19 26 -2 33 1 35 18 2 17 12 23 46 28 23 4 51 4 61 0
16 -6 15 -4 -3 14 -12 12 -22 31 -22 42 0 16 -7 20 -30 20 -25 0 -30 -4 -30
-23z"/>
<path d="M1367 1932 c-27 -30 -20 -47 8 -21 13 13 25 27 25 32 0 13 -16 7 -33
-11z"/>
<path d="M786 1846 c12 -34 25 -94 28 -132 7 -86 14 -120 31 -159 15 -36 44
-112 46 -123 2 -12 10 -34 26 -77 8 -22 25 -71 38 -110 12 -38 43 -122 67
-185 25 -63 58 -153 74 -200 15 -47 31 -89 36 -95 22 -25 -2 69 -57 225 -61
172 -77 217 -90 245 -7 17 -17 44 -21 60 -4 17 -17 50 -30 75 -12 25 -30 72
-39 104 -9 32 -25 77 -35 99 -10 23 -26 91 -35 150 -16 104 -35 170 -54 181
-4 3 2 -23 15 -58z"/>
<path d="M697 1878 c6 -7 27 -35 48 -63 44 -60 50 -65 42 -43 -9 26 -80 118
-90 118 -5 0 -5 -6 0 -12z"/>
<path d="M959 1848 c-3 -13 -1 -41 2 -63 5 -35 6 -33 8 23 1 63 -4 81 -10 40z"/>
<path d="M674 1818 c8 -43 55 -115 84 -127 34 -16 34 -14 0 22 -16 17 -41 56
-54 85 -27 59 -40 68 -30 20z"/>
<path d="M890 1713 c0 -5 7 -32 14 -61 8 -29 18 -86 21 -127 4 -42 11 -78 16
-81 6 -3 7 11 5 33 -3 21 -8 63 -11 93 -7 71 -27 150 -37 150 -4 0 -8 -3 -8
-7z"/>
<path d="M1256 1705 c-3 -9 -5 -51 -5 -93 l2 -77 7 90 c8 93 7 108 -4 80z"/>
<path d="M658 1691 c13 -11 43 -26 65 -32 23 -6 50 -15 61 -21 13 -7 17 -6 14
2 -2 7 -31 23 -63 35 -108 40 -103 39 -77 16z"/>
<path d="M1845 1681 c-3 -6 1 -11 9 -11 35 0 7 -180 -50 -318 -19 -45 -34 -90
-34 -100 0 -9 12 10 26 43 14 33 30 68 35 77 5 10 9 27 9 38 0 11 5 20 11 20
6 0 9 7 6 15 -4 8 -2 17 2 20 15 8 30 127 23 174 -7 43 -24 63 -37 42z"/>
<path d="M1750 1654 c-15 -38 -12 -42 10 -14 22 28 25 40 10 40 -6 0 -15 -12
-20 -26z"/>
<path d="M738 1622 c10 -10 29 -26 42 -35 23 -16 23 -17 4 -17 -11 0 -43 6
-72 14 -29 7 -52 9 -52 5 0 -5 12 -11 28 -14 15 -4 34 -10 43 -15 9 -5 26 -6
36 -4 17 5 23 -4 41 -53 46 -129 43 -123 38 -67 -3 29 -12 69 -22 90 -9 22
-16 46 -15 54 1 9 -16 26 -38 38 -47 27 -57 28 -33 4z"/>
<path d="M1336 1622 c-3 -5 17 -25 44 -45 56 -42 64 -40 23 5 -33 35 -60 51
-67 40z"/>
<path d="M1731 1571 c-35 -149 -40 -183 -38 -243 2 -37 7 -71 11 -75 5 -4 6
27 3 70 -3 46 -2 75 4 72 12 -8 11 -139 -1 -151 -7 -7 -7 -40 0 -105 7 -52 10
-114 8 -139 l-3 -45 -12 55 c-11 52 -12 50 -7 -43 5 -83 3 -101 -11 -117 -9
-10 -15 -29 -13 -42 3 -19 7 -16 25 24 15 32 37 58 68 80 25 18 41 34 35 36
-7 3 -25 -5 -41 -17 -15 -11 -31 -21 -34 -21 -3 0 -3 24 1 53 8 64 39 113 82
129 49 18 38 29 -23 22 l-55 -7 -2 29 c-2 38 -1 59 7 119 4 28 6 57 6 65 0 8
-3 54 -5 102 -3 50 -1 90 5 93 5 4 9 17 9 30 0 13 11 32 24 43 l24 19 -29 0
c-25 0 -30 -5 -38 -36z"/>
<path d="M1470 1525 c7 -8 9 -15 5 -15 -4 0 -2 -7 5 -15 7 -8 19 -15 26 -15
22 0 16 31 -6 37 -11 3 -20 9 -20 14 0 5 -5 9 -11 9 -8 0 -8 -5 1 -15z"/>
<path d="M1280 1470 c0 -11 7 -20 15 -20 8 0 15 9 15 20 0 11 -7 20 -15 20 -8
0 -15 -9 -15 -20z"/>
<path d="M1517 1463 c-16 -4 -16 -7 5 -36 27 -39 37 -47 63 -47 19 1 18 2 -4
21 -13 11 -31 24 -40 30 -12 7 -13 12 -3 15 6 3 12 10 12 15 0 9 -4 10 -33 2z"/>
<path d="M1470 1356 c0 -9 10 -26 21 -37 15 -15 18 -23 9 -29 -8 -5 -4 -9 10
-13 12 -3 20 -9 17 -14 -3 -4 1 -16 8 -26 9 -12 15 -15 20 -7 4 6 0 19 -9 29
-9 10 -16 24 -16 32 0 8 -9 21 -20 29 -11 8 -20 20 -20 27 0 6 -4 15 -10 18
-5 3 -10 -1 -10 -9z"/>
<path d="M874 1332 c5 -9 -21 -203 -29 -211 -9 -9 -44 31 -38 45 3 8 1 14 -5
14 -24 0 -20 -32 8 -57 17 -14 30 -35 30 -45 0 -21 -11 -23 -28 -6 -6 6 -15 8
-19 5 -4 -4 3 -17 15 -29 12 -12 24 -20 27 -17 24 25 65 309 44 309 -5 0 -8
-4 -5 -8z"/>
<path d="M1270 1262 c0 -7 4 -12 9 -12 5 0 11 -9 14 -20 3 -13 10 -18 21 -14
22 8 20 34 -2 34 -10 0 -23 5 -30 12 -9 9 -12 9 -12 0z"/>
<path d="M615 1229 c-4 -6 2 -13 13 -16 11 -2 22 -14 25 -24 3 -11 9 -18 14
-17 4 1 18 -3 31 -11 13 -7 33 -11 45 -9 19 3 17 6 -15 22 -20 10 -42 24 -49
32 -6 8 -18 14 -25 14 -8 0 -14 5 -14 10 0 13 -17 13 -25 -1z"/>
<path d="M705 1230 c-7 -12 39 -24 61 -16 8 3 12 10 9 16 -8 13 -62 13 -70 0z"/>
<path d="M1441 1216 c-9 -11 -6 -18 17 -34 39 -28 79 -38 79 -19 0 9 -7 12
-19 9 -25 -6 -69 24 -62 43 8 19 0 19 -15 1z"/>
<path d="M1605 1150 c-3 -5 -20 -10 -36 -10 -20 0 -29 -4 -26 -12 3 -9 19 -12
48 -10 52 4 51 4 43 26 -7 18 -20 21 -29 6z"/>
<path d="M1650 1130 c0 -5 5 -10 10 -10 6 0 10 -7 8 -16 -2 -10 3 -19 10 -21
16 -6 16 29 0 45 -15 15 -28 16 -28 2z"/>
<path d="M663 1108 c-18 -5 -33 -10 -33 -12 0 -2 41 -4 91 -4 69 0 89 2 80 11
-14 14 -94 17 -138 5z"/>
<path d="M544 1069 c3 -17 6 -38 6 -46 0 -8 4 -12 9 -8 5 3 19 -7 30 -21 28
-35 27 -11 -1 48 -28 58 -54 74 -44 27z"/>
<path d="M1806 1055 c-31 -22 -43 -35 -32 -35 10 0 31 10 48 21 27 20 38 21
111 15 84 -7 93 -1 29 21 -63 22 -102 17 -156 -22z"/>
<path d="M663 1006 c-40 -34 -23 -42 23 -11 50 34 51 35 26 35 -11 0 -34 -11
-49 -24z"/>
<path d="M740 995 c-13 -14 -21 -25 -17 -25 3 0 27 11 53 25 45 24 46 25 17
25 -19 0 -38 -9 -53 -25z"/>
<path d="M2010 991 c-6 -16 -10 -38 -8 -48 2 -11 -3 -27 -11 -36 -12 -15 -11
-17 3 -17 24 0 19 -33 -11 -72 -16 -20 -35 -45 -43 -57 -8 -12 -22 -24 -32
-27 -15 -4 -27 -34 -15 -34 19 0 66 35 70 51 3 12 10 18 16 15 6 -4 7 -14 4
-23 -4 -10 -2 -14 4 -10 6 4 16 28 21 54 11 49 25 233 18 233 -2 0 -9 -13 -16
-29z"/>
<path d="M1307 994 c-9 -10 4 -34 19 -34 8 0 14 9 14 20 0 19 -19 27 -33 14z"/>
<path d="M548 973 c-8 -30 22 -70 135 -180 l95 -92 -5 -63 -5 -63 28 -2 c16 0
22 1 14 3 -12 4 -15 14 -12 39 2 19 7 35 12 35 10 0 45 -40 34 -40 -27 -1 36
-30 65 -30 20 0 74 -14 121 -31 47 -16 110 -38 141 -47 31 -9 63 -23 72 -30
12 -10 16 -10 20 0 4 9 6 7 6 -4 1 -9 -4 -20 -9 -23 -12 -8 5 -45 21 -45 18 0
41 -28 27 -32 -9 -3 -9 -6 -1 -11 16 -10 85 76 77 97 -3 9 -1 16 6 16 6 0 8
-4 5 -10 -3 -5 -2 -10 4 -10 5 0 11 5 13 10 2 6 19 16 39 23 42 14 49 30 17
37 -29 7 -96 -37 -121 -79 -11 -18 -26 -31 -38 -31 -21 0 -38 28 -22 39 17 11
53 69 53 84 0 24 96 33 140 13 47 -22 73 -39 83 -53 4 -7 12 -13 18 -13 5 0
29 -9 51 -20 23 -11 44 -17 47 -14 10 10 -52 54 -91 65 -34 9 -53 29 -28 29 6
0 10 5 10 11 0 8 -13 9 -38 5 -40 -6 -47 -1 -134 92 -12 12 -24 19 -27 16 -3
-3 1 -11 10 -17 19 -15 47 -63 29 -52 -6 4 -19 0 -28 -8 -9 -8 -27 -18 -40
-22 -12 -3 -30 -17 -38 -31 -20 -29 -54 -32 -54 -5 0 10 7 24 15 31 17 14 20
37 6 42 -5 2 -11 17 -13 33 -3 27 0 30 27 33 48 6 54 22 8 22 -23 0 -46 -6
-52 -14 -18 -22 -25 -81 -12 -117 l11 -32 -48 6 c-58 7 -163 42 -173 58 -4 6
-12 8 -18 5 -6 -4 -10 -3 -9 2 4 15 -75 70 -124 87 -49 16 -38 7 53 -45 33
-19 57 -36 52 -37 -11 -4 -61 18 -113 48 -36 21 -92 78 -86 88 2 3 -2 12 -10
19 -8 7 -14 9 -14 5 0 -4 -31 25 -70 66 -38 40 -70 80 -70 89 0 13 -2 14 -9 4
-6 -10 -12 -8 -23 10 -9 13 -18 33 -20 43 -4 19 -4 19 -10 -2z"/>
<path d="M1870 970 c-11 -7 -6 -10 22 -10 20 0 45 -2 55 -5 10 -3 5 1 -12 9
-36 18 -45 19 -65 6z"/>
<path d="M765 930 c-16 -16 -26 -32 -24 -35 3 -3 18 9 34 25 16 16 26 32 24
35 -3 3 -18 -9 -34 -25z"/>
<path d="M937 941 c4 -17 41 -36 51 -26 5 5 -36 45 -47 45 -5 0 -7 -9 -4 -19z"/>
<path d="M1885 920 c-4 -6 0 -10 7 -10 7 0 25 -7 40 -14 16 -9 30 -11 33 -5 4
5 0 11 -7 14 -7 2 -25 9 -40 14 -17 7 -29 7 -33 1z"/>
<path d="M789 893 c-11 -29 0 -74 20 -81 10 -3 11 2 5 19 -5 13 -9 39 -9 57 0
39 -3 40 -16 5z"/>
<path d="M1810 911 c0 -5 14 -16 30 -25 36 -18 40 -5 5 18 -28 18 -35 20 -35
7z"/>
<path d="M1300 863 c10 -50 28 -94 29 -71 1 25 -22 108 -30 108 -3 0 -3 -17 1
-37z"/>
<path d="M887 858 c-31 -29 -87 -115 -87 -134 0 -16 32 22 52 62 12 24 24 44
27 44 3 0 22 14 41 30 23 20 30 30 19 30 -9 0 -32 -15 -52 -32z"/>
<path d="M1025 815 c-22 -60 -14 -68 14 -13 11 23 17 46 12 51 -4 4 -16 -13
-26 -38z"/>
<path d="M1710 830 c0 -5 14 -10 30 -10 17 0 30 5 30 10 0 6 -13 10 -30 10
-16 0 -30 -4 -30 -10z"/>
<path d="M981 804 c-12 -15 -21 -35 -21 -46 0 -21 27 -90 38 -98 5 -3 16 -16
26 -30 l18 -25 -7 25 c-4 14 -14 37 -21 52 -8 15 -15 37 -15 50 -1 19 -3 18
-9 -7 -8 -30 -8 -30 -9 8 0 21 6 51 14 67 19 37 13 38 -14 4z"/>
<path d="M1345 750 c-8 -13 3 -30 21 -30 18 0 18 14 0 29 -10 8 -16 9 -21 1z"/>
<path d="M1655 750 c-4 -6 9 -10 32 -10 28 0 34 3 23 10 -20 13 -47 13 -55 0z"/>
<path d="M1721 711 c-46 -13 -34 -29 39 -51 40 -12 74 -19 77 -16 10 9 -41 45
-57 41 -8 -2 -31 0 -50 4 l-35 9 33 1 c17 1 32 6 32 11 0 11 -4 11 -39 1z"/>
<path d="M1878 640 c22 -45 42 -64 42 -41 0 5 12 23 26 40 l26 31 -27 -10
c-22 -8 -31 -6 -52 10 -39 31 -42 25 -15 -30z"/>
<path d="M1050 660 c0 -9 14 -17 100 -53 14 -6 28 -13 33 -15 4 -2 7 2 7 7 0
6 -8 11 -17 12 -15 0 -15 2 2 8 16 7 11 10 -25 16 -25 4 -55 13 -67 21 -26 17
-33 17 -33 4z"/>
<path d="M1636 652 c-23 -5 -46 -26 -46 -41 0 -17 12 -13 45 13 32 26 32 35 1
28z"/>
<path d="M1056 612 c-2 -4 11 -12 30 -18 40 -13 46 -3 9 14 -31 14 -32 14 -39
4z"/>
<path d="M1805 514 c-33 -37 -63 -75 -67 -85 -9 -23 -38 -25 -38 -4 0 8 -5 15
-11 15 -6 0 -8 -7 -5 -16 3 -8 2 -24 -4 -33 -7 -15 -24 -19 -85 -20 -42 -1
-80 1 -86 5 -16 10 10 34 37 34 13 0 24 5 24 10 0 24 -53 6 -104 -37 -19 -16
-38 -23 -59 -21 -19 2 -32 -2 -35 -11 -3 -8 0 -11 7 -7 6 4 11 1 11 -6 3 -106
11 -192 20 -209 7 -11 10 -22 8 -24 -12 -11 -164 -21 -221 -14 -92 11 -275 63
-353 100 -77 35 -124 47 -124 29 0 -6 19 -38 42 -71 l41 -59 18 30 c14 22 25
29 44 28 19 -2 24 -7 19 -20 -4 -14 0 -17 26 -13 37 4 97 -5 210 -35 47 -12
90 -22 95 -22 52 0 164 12 180 18 19 7 19 6 -2 -17 -16 -17 -19 -29 -13 -39 8
-13 10 -12 10 3 0 9 5 17 11 17 5 0 16 15 24 33 8 19 20 39 28 46 12 9 16 6
20 -21 4 -26 0 -38 -19 -56 -21 -20 -31 -42 -20 -42 3 0 35 22 71 50 36 27 78
52 93 55 15 4 47 15 72 27 58 26 152 37 150 17 -1 -8 -2 -25 -1 -39 2 -37 21
-4 21 37 0 21 6 33 18 37 9 3 -14 3 -52 0 -37 -3 -95 -14 -128 -26 -77 -26
-181 -48 -190 -40 -3 4 -16 45 -27 92 -12 46 -26 89 -31 94 -12 12 7 49 21 40
5 -3 15 -1 22 4 8 7 36 7 77 3 36 -5 72 -6 80 -3 10 3 12 2 5 -6 -5 -6 -23
-12 -40 -15 -23 -3 -20 -4 14 -6 37 -1 42 -3 31 -16 -10 -12 -10 -15 3 -15 9
0 18 9 22 20 3 11 21 30 38 42 18 12 34 25 37 28 3 4 21 15 40 26 19 10 37 20
40 22 3 2 5 16 5 32 0 22 9 34 35 52 20 14 35 32 35 43 0 39 -31 24 -90 -41z"/>
<path d="M750 478 c0 -43 23 -88 38 -73 3 3 0 11 -6 17 -7 7 -12 26 -12 43 0
16 -5 37 -10 45 -7 11 -10 2 -10 -32z"/>
<path d="M1442 425 c-12 -14 -19 -25 -17 -25 12 0 55 33 55 41 0 16 -16 9 -38
-16z"/>
<path d="M1627 432 c4 -10 2 -13 -5 -8 -7 4 -12 2 -12 -4 0 -7 7 -9 16 -6 9 3
22 6 30 6 20 0 9 16 -15 23 -15 3 -18 1 -14 -11z"/>
<path d="M1130 410 c-8 -5 -28 -10 -44 -10 -16 0 -27 -3 -24 -6 9 -8 128 7
128 17 0 12 -41 11 -60 -1z"/>
<path d="M1797 377 c-7 -18 3 -67 14 -67 12 0 12 67 0 74 -5 3 -11 0 -14 -7z"/>
<path d="M1240 350 c-11 -21 -4 -25 24 -14 20 8 21 20 1 28 -9 3 -19 -3 -25
-14z"/>
<path d="M1316 325 c-3 -8 -3 -21 0 -28 2 -7 -7 -24 -21 -37 -29 -27 -33 -53
-7 -48 9 2 16 11 16 21 -1 9 6 19 16 22 10 3 21 13 24 21 3 8 2 12 -4 9 -6 -3
-10 3 -10 14 0 12 5 21 10 21 6 0 10 5 10 10 0 16 -27 12 -34 -5z"/>
<path d="M948 308 c-16 -5 -28 -14 -28 -19 0 -11 0 -11 39 2 17 6 31 15 31 20
0 11 -7 10 -42 -3z"/>
<path d="M790 301 c0 -5 -14 -14 -32 -20 -17 -6 -29 -14 -25 -17 3 -3 29 2 57
11 28 9 49 20 45 23 -10 10 -45 12 -45 3z"/>
<path d="M826 251 c-9 -13 22 -21 67 -17 51 5 61 17 12 15 -22 -1 -47 1 -56 5
-10 4 -20 3 -23 -3z"/>
<path d="M980 242 c0 -12 101 -22 115 -10 5 4 -9 8 -30 8 -22 0 -50 3 -62 6
-13 4 -23 2 -23 -4z"/>
<path d="M1500 241 c0 -5 9 -13 21 -16 27 -9 119 4 119 17 0 6 -10 7 -27 2
-36 -10 -63 -10 -90 0 -14 4 -23 3 -23 -3z"/>
<path d="M1312 182 c-7 -5 -10 -16 -6 -25 8 -21 24 -22 24 -2 0 8 3 14 8 13 4
-2 8 2 10 7 4 13 -19 17 -36 7z"/>
<path d="M1786 81 c-3 -5 1 -12 9 -15 9 -3 22 -20 30 -38 l15 -33 -2 40 c-2
26 -7 39 -15 37 -7 -1 -13 2 -13 8 0 12 -17 13 -24 1z"/>
<path d="M623 53 c-19 -40 -16 -53 12 -53 14 0 25 5 25 10 0 6 7 10 15 10 24
0 17 17 -10 24 -16 4 -22 11 -19 21 11 27 -11 16 -23 -12z"/>
<path d="M810 60 c0 -12 5 -17 13 -14 17 6 19 -28 3 -38 -7 -5 -5 -8 5 -8 21
0 31 24 23 56 -8 30 -44 34 -44 4z"/>
<path d="M243 53 c-7 -2 -13 -16 -13 -30 0 -21 4 -24 23 -19 12 3 25 6 29 6 4
0 2 11 -4 25 -12 26 -14 27 -35 18z"/>
<path d="M284 48 c-6 -9 33 -21 45 -14 5 3 11 -3 14 -14 4 -15 14 -20 41 -20
20 0 36 5 36 10 0 6 -7 10 -15 10 -8 0 -24 8 -35 17 -20 18 -78 25 -86 11z"/>
</g>
</svg>
